<svg xmlns="http://www.w3.org/2000/svg" viewBox="0 0 800 800" role="img" aria-labelledby="logoTitle logoDesc">
  <title id="logoTitle">The Little Things Logo</title>
  <desc id="logoDesc">Circular monochrome logo with fairy icon and text: the little things, handmade and stationery.</desc>

  <defs>
    <style>
      .outer-bg { fill: #f2f2f2; }
      .ring { fill: none; stroke: #0f0f0f; }
      .ink { fill: #0f0f0f; stroke: #0f0f0f; }
      .line { fill: none; stroke: #0f0f0f; stroke-linecap: round; stroke-linejoin: round; }
      .title {
        font-family: "Brush Script MT", "Segoe Script", "Lucida Handwriting", cursive;
        font-size: 94px;
        font-weight: 400;
        letter-spacing: 1px;
        fill: #0f0f0f;
      }
      .subtitle {
        font-family: "Padauk", "Century Gothic", "Avenir Next", sans-serif;
        font-size: 47px;
        font-weight: 400;
        letter-spacing: 5px;
        fill: #4a4a4a;
      }
    </style>
  </defs>

  <circle class="outer-bg" cx="400" cy="400" r="382"/>
  <circle class="ring" cx="400" cy="400" r="380" stroke-width="5"/>
  <circle class="ring" cx="400" cy="400" r="360" stroke-width="2.6"/>

  <g transform="translate(400 286)">
    <path class="line" stroke-width="2.4" d="M-82 48c-20-26-34-58-16-73 10-8 24 10 27 30"/>
    <path class="line" stroke-width="2.4" d="M82 48c20-26 34-58 16-73-10-8-24 10-27 30"/>

    <path class="line" stroke-width="3.2" d="M-96 53c-28-14-43-33-46-49-2-11 6-15 17-9 10 6 17 17 27 27"/>
    <path class="line" stroke-width="3.2" d="M96 53c28-14 43-33 46-49 2-11-6-15-17-9-10 6-17 17-27 27"/>
    <path class="line" stroke-width="3.2" d="M-98 53c-25 10-47 11-58 4-8-6-6-16 4-22 12-7 28-7 42-5"/>
    <path class="line" stroke-width="3.2" d="M98 53c25 10 47 11 58 4 8-6 6-16-4-22-12-7-28-7-42-5"/>

    <circle class="line" cx="0" cy="-16" r="49" stroke-width="2.2"/>
    <circle class="ink" cx="-43" cy="-34" r="20" stroke-width="1.8"/>
    <circle class="ink" cx="43" cy="-34" r="20" stroke-width="1.8"/>

    <path class="ink" stroke-width="2" d="M-54 -21c16-27 43-34 70-25 0 0-9 30-34 46-12 8-28 12-40 8z"/>
    <path class="ink" stroke-width="2" d="M24 -45c17 6 25 23 17 46-16-7-24-22-24-38 0-3 0-6 1-8z"/>

    <path class="line" stroke-width="2.3" d="M-22 10c10 6 22 7 34 0"/>
    <path class="line" stroke-width="2.1" d="M-18 28c11 5 25 5 36 0"/>

    <path class="line" stroke-width="2.4" d="M-27 33l-13 31"/>
    <path class="line" stroke-width="2.4" d="M27 33l13 31"/>
    <path class="line" stroke-width="2.4" d="M-45 66h90"/>
    <path class="line" stroke-width="2.2" d="M-45 66l0 36 18-8 29-1 28 7 15-8 0-26"/>

    <path class="ink" d="M-6 49c4-6 8-6 12 0l3 18c-6 4-12 4-18 0z"/>

    <path class="line" stroke-width="2.2" d="M40 86l40 0 60 15"/>
    <path class="line" stroke-width="2.2" d="M46 93l45 16"/>
    <path class="line" stroke-width="2.2" d="M46 79l45-16"/>
    <path class="line" stroke-width="2.2" d="M122 96l16-12"/>
    <path class="line" stroke-width="2.2" d="M122 96l18 2"/>
    <path class="line" stroke-width="2.2" d="M122 96l8 16"/>

    <path class="ink" d="M-25 -92l7 18 19 1-14 12 5 19-17-10-17 10 5-19-14-12 19-1z"/>
    <path class="line" stroke-width="2.2" d="M-18 -85c29-8 69 4 86 35"/>
  </g>

  <text class="title" x="400" y="505" text-anchor="middle">the little things</text>
  <text class="subtitle" x="400" y="575" text-anchor="middle">HANDMADE &amp; STATIONERY</text>
</svg>
